<svg xmlns="http://www.w3.org/2000/svg" viewBox="0 0 64 64" fill="none">
  <defs>
    <linearGradient id="empGrad" x1="8" y1="8" x2="56" y2="56" gradientUnits="userSpaceOnUse">
      <stop offset="0%" stop-color="#3B82F6"/>
      <stop offset="100%" stop-color="#1D4ED8"/>
    </linearGradient>
    <linearGradient id="empBadge" x1="20" y1="28" x2="44" y2="56" gradientUnits="userSpaceOnUse">
      <stop offset="0%" stop-color="#60A5FA"/>
      <stop offset="100%" stop-color="#2563EB"/>
    </linearGradient>
  </defs>
  <!-- Background Badge Card -->
  <rect x="10" y="6" width="44" height="52" rx="10" fill="url(#empGrad)" fill-opacity="0.12" stroke="url(#empGrad)" stroke-width="2.5"/>
  <!-- Lanyard Clip -->
  <rect x="26" y="2" width="12" height="6" rx="3" fill="#1D4ED8"/>
  <rect x="29" y="10" width="6" height="2" rx="1" fill="#93C5FD"/>
  <!-- User Avatar Circle -->
  <circle cx="32" cy="24" r="9" fill="url(#empBadge)"/>
  <circle cx="32" cy="22" r="5" fill="#FFFFFF"/>
  <path d="M25 31.5C25 28.5 28 26 32 26C36 26 39 28.5 39 31.5" stroke="#FFFFFF" stroke-width="2" stroke-linecap="round"/>
  <!-- Info Lines -->
  <rect x="20" y="38" width="24" height="3" rx="1.5" fill="#2563EB"/>
  <rect x="24" y="44" width="16" height="2.5" rx="1.25" fill="#60A5FA"/>
  <!-- Mini Barcode Bars -->
  <rect x="22" y="49.5" width="2" height="4.5" rx="0.5" fill="#1E40AF"/>
  <rect x="25.5" y="49.5" width="3" height="4.5" rx="0.5" fill="#1E40AF"/>
  <rect x="30" y="49.5" width="1.5" height="4.5" rx="0.5" fill="#1E40AF"/>
  <rect x="33" y="49.5" width="3.5" height="4.5" rx="0.5" fill="#1E40AF"/>
  <rect x="38" y="49.5" width="2" height="4.5" rx="0.5" fill="#1E40AF"/>
</svg>
